<svg width="140" height="44" viewBox="0 0 140 44" fill="none" xmlns="http://www.w3.org/2000/svg">
<g clip-path="url(#clip0_103_301)">
<rect opacity="0.4" x="0.5" y="0.5" width="139" height="43" rx="5.5" stroke="#181716" stroke-opacity="0.13"/>
<path d="M28.1251 8H15.8863C10.1134 8 8 10.102 8 15.8749V28.1137C8 33.8866 10.1134 36 15.8863 36H28.1251C33.8866 36 36 33.8866 36 28.1137V15.8749C36 10.102 33.898 8 28.1251 8Z" fill="#F6334A"/>
<path fill-rule="evenodd" clip-rule="evenodd" d="M19.9501 24.8957L19.6112 25.6496H18.8572L20.4642 21.994H21.1154L22.7223 25.6496H21.9455L21.618 24.8957H19.9501ZM20.2167 24.2331H21.34L20.7764 22.9269L20.2167 24.2331ZM32.1432 21.994H32.8858V25.6496H32.1432V21.994ZM29.2301 24.987H31.2674V25.6496H28.499V21.994H31.1874V22.668H29.2301V23.4105H30.582V24.0846H29.2301V24.987ZM27.1243 21.994H27.9012L26.6293 25.6611H26.001L25.167 23.2544L24.3331 25.6611H23.7238L22.4405 21.994H23.2402L24.0513 24.5149L24.8738 21.994H25.4831L26.317 24.5149L27.1243 21.994ZM17.7339 21.994H18.4764V24.0655C18.4764 25.1127 17.9014 25.7182 16.8885 25.7182C15.8984 25.7182 15.3234 25.1203 15.3234 24.0884V21.9978H16.066V24.0693C16.066 24.6862 16.3592 25.0137 16.8999 25.0137C17.4407 25.0137 17.7339 24.6862 17.7339 24.0922V21.994ZM13.5489 21.994H14.2915V25.6611H13.5489V24.1645H11.8734V25.6611H11.1309V21.994H11.8734V23.4677H13.5489V21.994ZM22.0064 17.3368C19.4284 17.3368 17.3493 15.2463 17.3493 12.6797H18.0004C18.0004 14.8845 19.8016 16.6742 22.0064 16.6742C24.2112 16.6742 26.0124 14.8845 26.0124 12.6797H26.6636C26.6636 15.2425 24.573 17.3368 22.0064 17.3368Z" fill="white"/>
<path d="M46.9896 27.3296H50.4796L49.2298 23.9845C49.0581 23.5224 48.8891 23.0121 48.7221 22.4534C48.5715 22.9476 48.4079 23.4527 48.2307 23.9686L46.9896 27.3296ZM51.0757 28.9174H46.4009L45.2566 32.0449H43.2012L47.7793 20.3655H49.7219L54.4045 32.0449H52.2446L51.0757 28.9174Z" fill="#423E38" fill-opacity="0.65"/>
<path d="M60.5689 29.9206C60.9746 29.3754 61.1775 28.5786 61.1775 27.5308C61.1775 26.5582 61.0097 25.8531 60.6736 25.4149C60.3374 24.9769 59.8906 24.7581 59.3317 24.7581C58.9445 24.7581 58.5871 24.8492 58.2596 25.032C57.9321 25.2147 57.6199 25.4593 57.3248 25.7656V30.4245C57.5231 30.5213 57.7544 30.5978 58.0177 30.6542C58.2809 30.7105 58.5414 30.7387 58.7999 30.7387C59.5737 30.7387 60.163 30.4659 60.5689 29.9206ZM55.3338 25.4754C55.3338 24.8304 55.312 24.1215 55.2695 23.3473H57.1393C57.2088 23.7076 57.2571 24.0757 57.2844 24.4519C58.0581 23.6081 58.9445 23.1862 59.9443 23.1862C60.5244 23.1862 61.0622 23.3328 61.5561 23.6255C62.0507 23.9184 62.4499 24.3805 62.7535 25.0118C63.0571 25.6432 63.209 26.4455 63.209 27.4177C63.209 28.4335 63.0352 29.3014 62.6884 30.0214C62.3423 30.7414 61.8571 31.2866 61.2339 31.6576C60.6107 32.0283 59.8906 32.214 59.0738 32.214C58.4824 32.214 57.8996 32.1142 57.3248 31.9155V35.5103L55.3338 35.6797V25.4754Z" fill="#423E38" fill-opacity="0.65"/>
<path d="M69.7172 29.9206C70.123 29.3754 70.3258 28.5786 70.3258 27.5308C70.3258 26.5582 70.1581 25.8531 69.8219 25.4149C69.4858 24.9769 69.0389 24.7581 68.48 24.7581C68.0928 24.7581 67.7355 24.8492 67.4079 25.032C67.0804 25.2147 66.7682 25.4593 66.4731 25.7656V30.4245C66.6713 30.5213 66.9027 30.5978 67.166 30.6542C67.4291 30.7105 67.6897 30.7387 67.9482 30.7387C68.7221 30.7387 69.3113 30.4659 69.7172 29.9206ZM64.4822 25.4754C64.4822 24.8304 64.4603 24.1215 64.4178 23.3473H66.2874C66.3571 23.7076 66.4054 24.0757 66.4327 24.4519C67.2064 23.6081 68.0928 23.1862 69.0927 23.1862C69.6728 23.1862 70.2103 23.3328 70.7043 23.6255C71.199 23.9184 71.598 24.3805 71.9017 25.0118C72.2054 25.6432 72.3571 26.4455 72.3571 27.4177C72.3571 28.4335 72.1835 29.3014 71.8367 30.0214C71.4906 30.7414 71.0054 31.2866 70.3821 31.6576C69.759 32.0283 69.0389 32.214 68.2221 32.214C67.6308 32.214 67.048 32.1142 66.4731 31.9155V35.5103L64.4822 35.6797V25.4754Z" fill="#423E38" fill-opacity="0.65"/>
<path d="M76.1134 31.4917C75.2534 31.0164 74.5925 30.3352 74.1302 29.4489C73.6681 28.5619 73.4375 27.5142 73.4375 26.3052C73.4375 24.994 73.7033 23.8802 74.2353 22.964C74.7675 22.048 75.4915 21.3602 76.4077 20.9008C77.3233 20.4413 78.351 20.2116 79.4906 20.2116C80.1624 20.2116 80.8029 20.2854 81.4127 20.4333C82.0228 20.5811 82.5909 20.7837 83.118 21.0416L82.6102 22.5732C81.5512 22.0683 80.5408 21.8156 79.5796 21.8156C78.7681 21.8156 78.0573 21.9888 77.4474 22.3354C76.8373 22.6818 76.3634 23.1911 76.0245 23.863C75.6865 24.5346 75.5167 25.3457 75.5167 26.2971C75.5167 27.1299 75.6473 27.8689 75.9078 28.5136C76.1685 29.1583 76.5794 29.6692 77.141 30.0451C77.7026 30.4214 78.4107 30.6094 79.2647 30.6094C79.6518 30.6094 80.039 30.5772 80.4255 30.5124C80.8127 30.4481 81.1753 30.354 81.5135 30.2303V27.8689H78.8138V26.3213H83.4482V31.2381C82.7819 31.5497 82.0817 31.7888 81.3484 31.9556C80.6151 32.1221 79.8858 32.2051 79.1598 32.2051C77.9884 32.2051 76.9734 31.9675 76.1134 31.4917Z" fill="#423E38" fill-opacity="0.65"/>
<path d="M89.4277 30.432C89.8415 30.2335 90.1803 29.9862 90.4434 29.6904V28.0785C89.9004 28.0195 89.4575 27.9899 89.1136 27.9899C88.2914 27.9899 87.7232 28.1228 87.4089 28.3888C87.0946 28.6548 86.9375 29.0136 86.9375 29.4647C86.9375 29.8946 87.0515 30.2132 87.2796 30.4201C87.5084 30.6268 87.8187 30.7304 88.2105 30.7304C88.6082 30.7304 89.0141 30.6309 89.4277 30.432ZM90.6204 32.0441C90.5508 31.7056 90.5052 31.3215 90.4838 30.8914C90.1775 31.2571 89.7784 31.5675 89.2864 31.8222C88.7953 32.0776 88.2404 32.2051 87.6224 32.2051C87.1225 32.2051 86.667 32.107 86.256 31.9112C85.8449 31.715 85.5187 31.4195 85.2767 31.0244C85.0348 30.6295 84.9141 30.1473 84.9141 29.5777C84.9141 28.7341 85.2177 28.0612 85.8251 27.5585C86.4323 27.0559 87.4447 26.8048 88.8634 26.8048C89.396 26.8048 89.9223 26.8425 90.4434 26.9178V26.7484C90.4434 25.98 90.2796 25.4387 89.9516 25.1244C89.624 24.8103 89.1538 24.6528 88.5412 24.6528C88.117 24.6528 87.6628 24.7146 87.1789 24.8383C86.6956 24.962 86.2705 25.1095 85.9052 25.2815L85.591 23.8305C85.9458 23.6695 86.4131 23.5216 86.9939 23.3872C87.574 23.2532 88.1865 23.1859 88.8316 23.1859C89.5834 23.1859 90.2232 23.3001 90.7498 23.5285C91.2762 23.757 91.6873 24.1492 91.9829 24.7051C92.2786 25.2613 92.4266 26.0099 92.4266 26.9501V30.4079C92.4266 30.7678 92.4477 31.3134 92.4907 32.0441H90.6204Z" fill="#423E38" fill-opacity="0.65"/>
<path d="M94.1699 29.9563V19.6795L96.1523 19.5184V29.6021C96.1523 29.9726 96.2153 30.2344 96.3419 30.3876C96.4678 30.5406 96.6682 30.6173 96.9426 30.6173C97.0658 30.6173 97.2411 30.5877 97.4665 30.5288L97.7004 31.9556C97.5121 32.0308 97.2821 32.0912 97.0109 32.137C96.7398 32.1824 96.4832 32.2051 96.2412 32.2051C94.8601 32.2051 94.1699 31.4556 94.1699 29.9563Z" fill="#423E38" fill-opacity="0.65"/>
<path d="M99.127 29.9563V19.6795L101.109 19.5184V29.6021C101.109 29.9726 101.172 30.2344 101.299 30.3876C101.425 30.5406 101.625 30.6173 101.9 30.6173C102.023 30.6173 102.198 30.5877 102.424 30.5288L102.657 31.9556C102.469 32.0308 102.239 32.0912 101.968 32.137C101.697 32.1824 101.44 32.2051 101.198 32.2051C99.8172 32.2051 99.127 31.4556 99.127 29.9563Z" fill="#423E38" fill-opacity="0.65"/>
<path d="M108.968 26.684C108.931 25.9907 108.755 25.4707 108.444 25.1242C108.132 24.7776 107.716 24.6045 107.195 24.6045C106.69 24.6045 106.269 24.7789 105.933 25.1283C105.598 25.4776 105.378 25.9961 105.276 26.684H108.968ZM110.91 27.9492H105.22C105.311 29.7708 106.179 30.6818 107.823 30.6818C108.232 30.6818 108.649 30.6322 109.077 30.5327C109.504 30.4332 109.914 30.3003 110.306 30.1335L110.741 31.496C109.769 31.9687 108.675 32.2051 107.461 32.2051C106.536 32.2051 105.757 32.0307 105.123 31.6814C104.489 31.3319 104.012 30.8297 103.692 30.1739C103.373 29.5187 103.213 28.7286 103.213 27.8041C103.213 26.8424 103.382 26.015 103.721 25.3218C104.059 24.6282 104.531 24.0993 105.136 23.734C105.739 23.3682 106.437 23.1857 107.227 23.1857C108.049 23.1857 108.736 23.3779 109.287 23.7622C109.837 24.1464 110.245 24.6582 110.512 25.2977C110.778 25.937 110.91 26.6436 110.91 27.4172V27.9492Z" fill="#423E38" fill-opacity="0.65"/>
<path d="M112.515 25.5323C112.515 25.0539 112.494 24.3261 112.451 23.3478H114.313C114.345 23.5897 114.376 23.8786 114.406 24.2143C114.435 24.5505 114.455 24.8229 114.466 25.0325C114.697 24.6511 114.924 24.33 115.147 24.0695C115.37 23.8089 115.631 23.5963 115.929 23.4327C116.227 23.2686 116.567 23.1867 116.948 23.1867C117.255 23.1867 117.518 23.2189 117.739 23.2835L117.489 25.0083C117.295 24.9492 117.08 24.9197 116.843 24.9197C116.376 24.9197 115.968 25.0395 115.618 25.2784C115.269 25.5174 114.896 25.9114 114.499 26.4593V32.0449H112.515V25.5323Z" fill="#423E38" fill-opacity="0.65"/>
<path d="M118.932 35.6032C118.642 35.5522 118.403 35.4943 118.215 35.4297L118.578 33.9791C118.711 34.0165 118.881 34.0526 119.086 34.088C119.29 34.1227 119.483 34.1402 119.666 34.1402C120.547 34.1402 121.208 33.5731 121.649 32.4392L121.777 32.117L118.57 23.3473H120.705L122.318 28.2481C122.581 29.0864 122.75 29.7286 122.825 30.1744C122.976 29.5457 123.153 28.9171 123.357 28.2882L124.994 23.3473H127L123.801 32.1572C123.5 32.9903 123.175 33.6618 122.825 34.1724C122.476 34.6828 122.064 35.0617 121.588 35.3088C121.112 35.556 120.539 35.6797 119.867 35.6797C119.534 35.6797 119.223 35.6542 118.932 35.6032Z" fill="#423E38" fill-opacity="0.65"/>
<path d="M46.8786 15.2228C47.157 15.0359 47.3652 14.7787 47.503 14.4511C47.641 14.1236 47.7099 13.749 47.7099 13.3274C47.7099 12.9137 47.6489 12.5451 47.5269 12.2216C47.405 11.8979 47.2101 11.64 46.9422 11.4477C46.6744 11.2556 46.3297 11.1594 45.908 11.1594C45.5048 11.1594 45.1626 11.2568 44.8816 11.4517C44.6004 11.6467 44.3897 11.9079 44.2491 12.2355C44.1086 12.563 44.0382 12.9243 44.0382 13.3194C44.0382 13.7358 44.1046 14.1084 44.2372 14.4373C44.3698 14.7661 44.5726 15.0259 44.8458 15.2168C45.1189 15.4079 45.4571 15.5034 45.8601 15.5034C46.2606 15.5034 46.6001 15.4099 46.8786 15.2228ZM44.3009 15.929C43.8792 15.6876 43.557 15.3488 43.3341 14.9127C43.1114 14.4764 43 13.9692 43 13.3911C43 12.7838 43.1187 12.2526 43.3561 11.7978C43.5934 11.343 43.9354 10.9917 44.3823 10.7438C44.8292 10.4957 45.3564 10.3716 45.9636 10.3716C46.5445 10.3716 47.0443 10.4917 47.4633 10.7317C47.8823 10.9717 48.2019 11.3091 48.422 11.7441C48.6422 12.1791 48.7522 12.6829 48.7522 13.2558C48.7522 13.8737 48.6322 14.4107 48.3922 14.8669C48.1522 15.323 47.81 15.6745 47.3658 15.921C46.9216 16.1676 46.3998 16.291 45.8006 16.291C45.2224 16.291 44.7226 16.1703 44.3009 15.929Z" fill="#423E38" fill-opacity="0.65"/>
<path d="M50.7685 11.2823H48.9824L49.0699 10.4509H53.5531L53.4615 11.2823H51.763V16.2109H50.7685V11.2823Z" fill="#423E38" fill-opacity="0.65"/>
<path d="M58.9076 16.2109H57.7857L56.0712 13.673H55.391V16.2109H54.3965V10.4509H55.391V12.8296H55.9122L57.1056 11.1033C57.2805 10.846 57.4562 10.6597 57.6327 10.5444C57.809 10.4289 58.0311 10.3712 58.299 10.3712C58.5217 10.3712 58.7207 10.4085 58.8957 10.4826L58.6888 11.2584C58.5801 11.2134 58.4765 11.1909 58.3785 11.1909C58.2617 11.1909 58.1618 11.22 58.0781 11.2783C57.9946 11.3366 57.9077 11.4307 57.8175 11.5608L56.7635 13.0723L58.9076 16.2109Z" fill="#423E38" fill-opacity="0.65"/>
<path d="M62.162 13.0226C62.3742 12.8304 62.4803 12.5592 62.4803 12.2091C62.4803 11.8538 62.3723 11.5978 62.156 11.4415C61.9399 11.285 61.6223 11.2067 61.2033 11.2067H60.6624V13.2513C60.9117 13.2911 61.1026 13.3111 61.2352 13.3111C61.6409 13.3111 61.9499 13.2149 62.162 13.0226ZM59.6678 10.4509H61.2193C61.9485 10.4509 62.5069 10.5994 62.8941 10.8964C63.2812 11.1934 63.4748 11.623 63.4748 12.1852C63.4748 12.5671 63.388 12.9006 63.2142 13.1857C63.0406 13.4709 62.7985 13.6895 62.4884 13.842C62.178 13.9946 61.8213 14.0708 61.4181 14.0708C61.1981 14.0708 60.9461 14.0443 60.6624 13.9913V16.2109H59.6678V10.4509Z" fill="#423E38" fill-opacity="0.65"/>
<path d="M67.9664 15.2228C68.2449 15.0359 68.4531 14.7787 68.5909 14.4511C68.7289 14.1236 68.7979 13.749 68.7979 13.3274C68.7979 12.9137 68.7368 12.5451 68.6148 12.2216C68.4928 11.8979 68.2978 11.64 68.0301 11.4477C67.7623 11.2556 67.4175 11.1594 66.9959 11.1594C66.5927 11.1594 66.2505 11.2568 65.9695 11.4517C65.6883 11.6467 65.4776 11.9079 65.337 12.2355C65.1965 12.563 65.1261 12.9243 65.1261 13.3194C65.1261 13.7358 65.1925 14.1084 65.3251 14.4373C65.4577 14.7661 65.6604 15.0259 65.9337 15.2168C66.2068 15.4079 66.545 15.5034 66.948 15.5034C67.3485 15.5034 67.688 15.4099 67.9664 15.2228ZM65.3888 15.929C64.9671 15.6876 64.6449 15.3488 64.422 14.9127C64.1993 14.4764 64.0879 13.9692 64.0879 13.3911C64.0879 12.7838 64.2065 12.2526 64.444 11.7978C64.6813 11.343 65.0233 10.9917 65.4702 10.7438C65.9171 10.4957 66.4443 10.3716 67.0515 10.3716C67.6324 10.3716 68.1321 10.4917 68.5511 10.7317C68.9701 10.9717 69.2898 11.3091 69.51 11.7441C69.7299 12.1791 69.8401 12.6829 69.8401 13.2558C69.8401 13.8737 69.7201 14.4107 69.4801 14.8669C69.2401 15.323 68.8979 15.6745 68.4537 15.921C68.0095 16.1676 67.4877 16.291 66.8885 16.291C66.3102 16.291 65.8103 16.1703 65.3888 15.929Z" fill="#423E38" fill-opacity="0.65"/>
<path d="M72.66 9.94971C72.4506 9.83835 72.2907 9.69514 72.1808 9.5201C72.0705 9.34505 72.001 9.1567 71.9719 8.9552H72.6879C72.7647 9.37943 73.014 9.5917 73.4357 9.5917C73.8574 9.5917 74.108 9.37943 74.1877 8.9552H74.9075C74.8784 9.1567 74.8087 9.34505 74.6988 9.5201C74.5887 9.69514 74.4282 9.83835 74.2173 9.94971C74.0067 10.0611 73.7459 10.1168 73.4357 10.1168C73.1281 10.1168 72.8696 10.0611 72.66 9.94971ZM74.9036 16.2109V13.0446C74.9036 12.6467 74.9182 12.1906 74.9473 11.6761L72.0555 16.2109H70.9495V10.4509H71.8724V13.7407C71.8724 14.0987 71.8605 14.49 71.8366 14.9142L74.6848 10.4509H75.8265V16.2109H74.9036Z" fill="#423E38" fill-opacity="0.65"/>
<path d="M78.4558 11.2823H76.6697L76.7571 10.4509H81.2403L81.1489 11.2823H79.4503V16.2109H78.4558V11.2823Z" fill="#423E38" fill-opacity="0.65"/>
<path d="M82.0837 10.4509H85.4771L85.3816 11.2704H83.0782V12.8575H85.2502V13.6253H83.0782V15.3836H85.505L85.4213 16.2109H82.0837V10.4509Z" fill="#423E38" fill-opacity="0.65"/>
<path d="M91.8073 15.2264C92.01 15.0607 92.1116 14.8266 92.1116 14.5243C92.1116 14.2034 91.9996 13.9594 91.7754 13.7923C91.5514 13.6253 91.2286 13.5417 90.8069 13.5417H90.1386V15.475H90.8864C91.2973 15.475 91.6045 15.3921 91.8073 15.2264ZM90.1386 12.8059H90.7591C90.9658 12.8059 91.1483 12.7647 91.3061 12.6825C91.4638 12.6003 91.5852 12.4895 91.6701 12.3503C91.7548 12.211 91.7974 12.058 91.7974 11.8909C91.7974 11.6549 91.7117 11.4785 91.5407 11.3618C91.3696 11.245 91.1225 11.1867 90.7988 11.1867H90.1386V12.8059ZM92.4398 13.3648C92.6453 13.4907 92.8072 13.6564 92.9252 13.862C93.0432 14.0675 93.1021 14.3081 93.1021 14.5839C93.1021 14.9048 93.0218 15.1879 92.8613 15.4333C92.701 15.6785 92.4663 15.8696 92.1574 16.0061C91.8485 16.1427 91.4778 16.2109 91.0455 16.2109H89.168V10.4509H90.9658C91.5758 10.4509 92.0333 10.5689 92.3384 10.8048C92.6432 11.0409 92.7958 11.3645 92.7958 11.7756C92.7958 12.1176 92.6983 12.4034 92.5035 12.6327C92.3085 12.8621 92.0533 13.0232 91.7377 13.116C92.0002 13.1558 92.2342 13.2388 92.4398 13.3648Z" fill="#423E38" fill-opacity="0.65"/>
</g>
<defs>
<clipPath id="clip0_103_301">
<rect width="140" height="44" fill="white"/>
</clipPath>
</defs>
</svg>
