<svg width="140" height="44" viewBox="0 0 140 44" fill="none" xmlns="http://www.w3.org/2000/svg">
<g clip-path="url(#clip0_103_204)">
<path d="M61.3486 23.3477C63.6464 23.3477 65.1611 25.1641 65.1611 27.9697C65.161 30.783 63.6552 32.5908 61.3828 32.5908C60.8072 32.6209 60.2342 32.4881 59.7305 32.208C59.2269 31.9279 58.8123 31.5115 58.5342 31.0068H58.4912V35.4912H56.6328V23.4424H58.4316V24.9482H58.4658C58.7568 24.4458 59.1789 24.0309 59.6865 23.749C60.194 23.4674 60.7685 23.329 61.3486 23.3477ZM71.3135 23.3477C73.6114 23.3477 75.126 25.1641 75.126 27.9697C75.1259 30.783 73.62 32.5908 71.3477 32.5908C70.772 32.6209 70.1991 32.4881 69.6953 32.208C69.1917 31.9279 68.7771 31.5115 68.499 31.0068H68.4561V35.4912H66.5977V23.4424H68.3965V24.9482H68.4307C68.7216 24.4458 69.1437 24.0309 69.6514 23.749C70.1589 23.4674 70.7333 23.3289 71.3135 23.3477ZM84.6543 19.8711C87.2783 19.8711 89.0771 21.3428 89.1377 23.4854H87.2617C87.1494 22.2461 86.125 21.498 84.6279 21.498C83.1309 21.498 82.1064 22.2549 82.1064 23.3564C82.1064 24.2344 82.7607 24.751 84.3613 25.1465L85.7295 25.4824C88.2773 26.085 89.3359 27.1084 89.3359 28.9248C89.3359 31.248 87.4853 32.7031 84.542 32.7031C81.7881 32.7031 79.9287 31.2822 79.8086 29.0361H81.7109C81.8486 30.2676 83.045 31.0762 84.6797 31.0762C86.2461 31.0762 87.373 30.2676 87.373 29.1572C87.373 28.1934 86.6934 27.6162 85.084 27.2207L83.4746 26.833C81.1944 26.2822 80.1357 25.2158 80.1357 23.4854C80.1357 21.3428 82.003 19.8711 84.6543 19.8711ZM100.36 23.332C102.985 23.332 104.655 25.122 104.655 27.9707C104.655 30.8272 102.994 32.6094 100.36 32.6094C97.7275 32.6094 96.0664 30.8271 96.0664 27.9707C96.0664 25.1221 97.7441 23.332 100.36 23.332ZM115.409 23.332C117.914 23.332 119.489 25.0527 119.489 27.7979V28.4346H113.095V28.5469C113.065 28.8799 113.107 29.2155 113.217 29.5312C113.327 29.847 113.503 30.1364 113.733 30.3789C113.964 30.6214 114.243 30.8122 114.553 30.9385C114.862 31.0648 115.196 31.1236 115.53 31.1113C115.969 31.1525 116.41 31.0507 116.787 30.8213C117.164 30.5919 117.456 30.2469 117.621 29.8379H119.386C119.136 31.4814 117.535 32.6094 115.487 32.6094C112.854 32.6094 111.219 30.8447 111.219 28.0137C111.219 25.1738 112.862 23.332 115.409 23.332ZM93.3477 23.4434H95.0693V24.915H93.3477V29.9062C93.3477 30.6816 93.6924 31.043 94.4492 31.043C94.6536 31.0394 94.8577 31.0251 95.0605 31V32.4629C94.7203 32.5265 94.3744 32.5553 94.0283 32.5488C92.1953 32.5488 91.4805 31.8603 91.4805 30.1045V24.915H90.1641V23.4434H91.4805V21.3008H93.3477V23.4434ZM55.4775 32.4961H53.4385L52.3027 29.1396H47.5693L46.4326 32.4961H44.4277L48.9111 20.0781H50.9941L55.4775 32.4961ZM110.181 23.3477C110.395 23.3469 110.608 23.3702 110.817 23.417V25.1553C110.547 25.0727 110.265 25.0347 109.982 25.043C109.712 25.032 109.443 25.0797 109.193 25.1826C108.944 25.2855 108.719 25.4409 108.535 25.6387C108.351 25.8364 108.212 26.0716 108.128 26.3281C108.044 26.5848 108.015 26.8575 108.046 27.126V32.4961H106.188V23.4424H107.96V24.9834H108.003C108.123 24.5021 108.405 24.0762 108.802 23.7783C109.198 23.4806 109.685 23.3287 110.181 23.3477ZM100.36 24.8633C98.8545 24.8633 97.96 26.0254 97.96 27.9707C97.96 29.9326 98.8545 31.0771 100.36 31.0771C101.866 31.0771 102.762 29.9326 102.762 27.9707C102.762 26.0166 101.866 24.8633 100.36 24.8633ZM60.8584 24.9316C59.4385 24.9317 58.4834 26.1621 58.4834 27.9697C58.4835 29.7938 59.4386 31.0156 60.8584 31.0156C62.3036 31.0156 63.2509 29.8192 63.251 27.9697C63.251 26.1367 62.3037 24.9316 60.8584 24.9316ZM70.8232 24.9316C69.4033 24.9317 68.4482 26.1621 68.4482 27.9697C68.4483 29.7938 69.4034 31.0156 70.8232 31.0156C72.2685 31.0156 73.2157 29.8192 73.2158 27.9697C73.2158 26.1367 72.2686 24.9316 70.8232 24.9316ZM48.0596 27.5908H51.8115L49.9619 22.1436H49.9102L48.0596 27.5908ZM115.409 24.8379C115.107 24.8361 114.806 24.894 114.526 25.0088C114.246 25.1235 113.992 25.2932 113.777 25.5068C113.563 25.7204 113.393 25.9744 113.277 26.2539C113.162 26.5335 113.103 26.8332 113.104 27.1357H117.63C117.647 26.8361 117.601 26.5361 117.496 26.2549C117.391 25.9739 117.23 25.7176 117.021 25.502C116.813 25.2863 116.563 25.1152 116.285 25.001C116.008 24.8868 115.709 24.8314 115.409 24.8379Z" fill="#423E38" fill-opacity="0.65"/>
<path d="M67.249 14.7715H67.3193L68.4443 11.1953H69.3867L67.708 15.8848C67.3233 16.9801 66.8973 17.332 65.9795 17.332C65.9052 17.332 65.6943 17.3237 65.6113 17.3115V16.5459C65.7075 16.5581 65.8044 16.5637 65.9014 16.5625C66.0906 16.5765 66.2784 16.5202 66.4287 16.4043C66.5789 16.2884 66.6813 16.1211 66.7158 15.9346L66.7822 15.7148L65.1523 11.1953H66.1201L67.249 14.7715ZM62.5586 11.1191C63.704 11.1191 64.4276 12.0125 64.4277 13.4434C64.4277 14.874 63.7041 15.7715 62.5674 15.7715C62.2885 15.7905 62.01 15.7295 61.7646 15.5957C61.5191 15.4617 61.3166 15.2596 61.1816 15.0146H61.1113V17.1943H60.2227V11.1943H61.0781V11.9385H61.1445C61.2819 11.6849 61.4868 11.4746 61.7363 11.3301C61.9859 11.1856 62.2703 11.112 62.5586 11.1191ZM47.5723 9.58594C48.747 9.58595 49.5742 10.2437 49.5742 11.1904C49.577 11.5076 49.4707 11.8161 49.2734 12.0645C49.0762 12.3128 48.7997 12.4856 48.4902 12.5547V12.625C48.8572 12.6413 49.2025 12.8029 49.4512 13.0732C49.6999 13.3436 49.8318 13.7013 49.8174 14.0684C49.7902 14.3322 49.7102 14.5876 49.583 14.8203C49.4557 15.053 49.2837 15.2586 49.0762 15.4238C48.8687 15.589 48.6303 15.7113 48.375 15.7832C48.1196 15.8551 47.8521 15.8745 47.5889 15.8418C47.3251 15.8778 47.0567 15.861 46.7998 15.791C46.5429 15.7211 46.3029 15.5993 46.0938 15.4346C45.8847 15.2698 45.7102 15.0653 45.582 14.832C45.4539 14.5986 45.3744 14.3411 45.3477 14.0762H46.2373C46.291 14.647 46.8154 15.0156 47.5889 15.0156C48.3621 15.0156 48.8669 14.6023 48.8672 14.0195C48.8672 13.4282 48.3916 13.0635 47.5605 13.0635H46.7373V12.2529H47.5352C47.6724 12.27 47.8117 12.2591 47.9443 12.2197C48.0769 12.1803 48.2 12.1137 48.3057 12.0244C48.4114 11.9351 48.4976 11.8245 48.5586 11.7002C48.6195 11.5759 48.6542 11.44 48.6602 11.3018C48.6599 10.7517 48.2459 10.3965 47.5439 10.3965C47.4034 10.3768 47.2602 10.3854 47.123 10.4219C46.9859 10.4584 46.8573 10.5224 46.7451 10.6094C46.6329 10.6965 46.5383 10.8058 46.4688 10.9297C46.3994 11.0535 46.3557 11.19 46.3398 11.3311H45.4639C45.4789 11.0748 45.5471 10.8247 45.6631 10.5957C45.7791 10.3667 45.9409 10.1637 46.1387 10C46.3364 9.83632 46.5659 9.71477 46.8125 9.64355C47.0591 9.57239 47.3177 9.55286 47.5723 9.58594ZM86.6562 11.1074C87.909 11.1076 88.666 11.9641 88.666 13.3779V13.6875H85.4863V13.7373C85.4723 13.9025 85.4929 14.0688 85.5469 14.2256C85.6009 14.3824 85.6869 14.5269 85.7998 14.6484C85.9127 14.7698 86.0498 14.8663 86.2021 14.9316C86.3546 14.997 86.5197 15.0293 86.6855 15.0273C86.8979 15.0527 87.1132 15.0141 87.3037 14.917C87.4941 14.8198 87.6518 14.6682 87.7559 14.4814H88.6123C88.4912 14.893 88.2289 15.2492 87.8721 15.4873C87.5154 15.7252 87.0864 15.8302 86.6602 15.7842C86.3636 15.792 86.0683 15.7356 85.7959 15.6182C85.5234 15.5006 85.2799 15.3246 85.082 15.1035C84.8841 14.8824 84.7361 14.6207 84.6494 14.3369C84.5628 14.0532 84.5395 13.7538 84.5801 13.46C84.5406 13.1651 84.5649 12.8647 84.6514 12.5801C84.7379 12.2956 84.8843 12.0325 85.0811 11.8096C85.2779 11.5866 85.5204 11.4083 85.792 11.2871C86.0637 11.1659 86.3588 11.1049 86.6562 11.1074ZM71.9326 11.1084C73.0029 11.1084 73.6152 11.5928 73.6152 12.3535C73.6201 12.5652 73.5522 12.7727 73.4229 12.9404C73.2935 13.108 73.1103 13.2264 72.9043 13.2754V13.3457C73.1497 13.3774 73.3748 13.4979 73.5371 13.6846C73.6995 13.8713 73.7879 14.111 73.7852 14.3584C73.7852 15.2144 73.0566 15.7812 71.9443 15.7812C70.9611 15.7812 70.1623 15.3303 70.0801 14.4209H70.9648C71.0519 14.8177 71.424 15.0244 71.9443 15.0244C72.5361 15.0244 72.8994 14.7637 72.8994 14.3584C72.8994 13.9244 72.5732 13.7178 71.9443 13.7178H71.2705V13.0273H71.9326C72.4696 13.0273 72.743 12.8206 72.7432 12.4443C72.7432 12.1138 72.4785 11.8613 71.9326 11.8613C71.4355 11.8613 71.0723 12.0723 71.0146 12.4277H70.1582C70.2222 12.0194 70.4437 11.6519 70.7754 11.4053C71.1072 11.1586 71.523 11.052 71.9326 11.1084ZM52.8428 11.1074C53.9715 11.1074 54.6082 11.6692 54.6084 12.6201V15.6973H53.752V15.0645H53.6816C53.5389 15.2914 53.3382 15.4764 53.1006 15.6006C52.863 15.7247 52.5969 15.7839 52.3291 15.7715C52.1401 15.7911 51.9493 15.7706 51.7686 15.7119C51.5878 15.6532 51.4207 15.5576 51.2793 15.4307C51.138 15.3037 51.025 15.148 50.9473 14.9746C50.8696 14.8013 50.8289 14.6137 50.8281 14.4238C50.8281 13.6133 51.4326 13.1455 52.5029 13.0791L53.7227 13.0088V12.6201C53.7224 12.1448 53.409 11.876 52.8008 11.876C52.3047 11.876 51.9619 12.0586 51.8623 12.377H51.002C51.0928 11.6035 51.8213 11.1074 52.8428 11.1074ZM59.043 11.9434H56.9668V15.6982H56.0781V11.1953H59.043V11.9434ZM75.9453 14.293H76.0156L78.0908 11.1953H78.9717V15.6982H78.0908V12.585H78.0244L75.9453 15.6982H75.0645V11.1953H75.9453V14.293ZM83.8252 11.9434H82.4072V15.6982H81.5176V11.9434H80.0996V11.1953H83.8252V11.9434ZM94.4092 11.1953C95.2898 11.1953 95.8064 11.6414 95.8066 12.3398C95.808 12.5614 95.7331 12.7771 95.5947 12.9502C95.4563 13.1233 95.2624 13.2436 95.0459 13.291V13.3613C95.3088 13.3779 95.5552 13.4954 95.7344 13.6885C95.9135 13.8816 96.0118 14.1361 96.0088 14.3994C96.0088 15.1851 95.418 15.6982 94.4297 15.6982H92.3789V11.1953H94.4092ZM52.623 13.7324C52.0032 13.7739 51.7219 13.9852 51.7217 14.3818C51.7217 14.7871 52.0732 15.0234 52.5566 15.0234C52.6983 15.0378 52.8415 15.0235 52.9775 14.9814C53.1135 14.9394 53.2399 14.8701 53.3486 14.7783C53.4572 14.6866 53.5461 14.574 53.6104 14.4473C53.6747 14.3202 53.713 14.1811 53.7227 14.0391V13.6621L52.623 13.7324ZM93.2598 15.0166H94.3135C94.8389 15.0166 95.1201 14.7842 95.1201 14.3584C95.1201 13.9077 94.8018 13.6973 94.2021 13.6973H93.2598V15.0166ZM62.3105 11.918C61.5627 11.918 61.0949 12.5047 61.0947 13.4473C61.0947 14.3857 61.5625 14.9736 62.3066 14.9736C63.0635 14.9736 63.5137 14.3984 63.5137 13.4434C63.5135 12.4925 63.0633 11.918 62.3105 11.918ZM93.2598 11.8779V13.043H94.1406C94.6777 13.043 94.9346 12.8369 94.9346 12.4561C94.9346 12.105 94.7109 11.877 94.2393 11.877L93.2598 11.8779ZM86.6523 11.8643C86.4986 11.8622 86.3456 11.8904 86.2031 11.9482C86.0607 12.0061 85.931 12.0924 85.8223 12.2012C85.7138 12.3097 85.6281 12.4389 85.5703 12.5811C85.5125 12.7235 85.4842 12.8766 85.4863 13.0303H87.7598C87.771 12.8793 87.7501 12.7276 87.6992 12.585C87.6483 12.4423 87.5681 12.312 87.4639 12.2021C87.3596 12.0923 87.2335 12.0055 87.0938 11.9473C86.954 11.8891 86.8037 11.8609 86.6523 11.8643Z" fill="#423E38" fill-opacity="0.65"/>
<path d="M30.1357 15.9902C30.9227 16.0149 31.6931 16.2232 32.3857 16.5977C33.0786 16.9722 33.6752 17.5033 34.127 18.1484C33.4159 18.5856 32.8261 19.195 32.4141 19.9209C32.002 20.6469 31.7803 21.4661 31.7695 22.3008C31.7706 23.2395 32.0483 24.1573 32.5674 24.9395C33.0865 25.7217 33.8248 26.3335 34.6895 26.6992C34.3495 27.8036 33.8369 28.8476 33.1709 29.792C32.2766 31.1298 31.3388 32.4366 29.8506 32.4609C28.4045 32.4943 27.9181 31.6105 26.2598 31.6104C24.5855 31.6104 24.0667 32.4366 22.6797 32.4941C21.2623 32.5465 20.1788 31.0665 19.252 29.7412C17.3995 27.0347 15.9571 22.114 17.8906 18.7656C18.3371 17.9633 18.9847 17.2896 19.7686 16.8115C20.5523 16.3337 21.4468 16.0668 22.3643 16.0371C23.7829 16.0081 25.1004 16.9951 25.9727 16.9951C26.8284 16.9949 28.4566 15.814 30.1357 15.9902ZM30.1543 10.7207C30.2511 11.9849 29.8506 13.2367 29.0391 14.2109C28.6505 14.6943 28.1573 15.0835 27.5967 15.3486C27.0361 15.6136 26.4228 15.7486 25.8027 15.7422C25.7632 15.1343 25.8438 14.524 26.04 13.9473C26.2363 13.3705 26.5441 12.8375 26.9463 12.3799C27.7688 11.4431 28.9145 10.8509 30.1543 10.7207Z" fill="black"/>
<rect opacity="0.4" x="0.5" y="0.5" width="139" height="43" rx="5.5" stroke="#181716" stroke-opacity="0.13"/>
</g>
<defs>
<clipPath id="clip0_103_204">
<rect width="140" height="44" fill="white"/>
</clipPath>
</defs>
</svg>
