<svg width="24" height="24" viewBox="0 0 24 24" fill="none" xmlns="http://www.w3.org/2000/svg">
<path d="M22.4781 16.4704C22.7709 16.2069 23.2182 16.2183 23.4967 16.4967C23.7778 16.7778 23.7868 17.231 23.5172 17.5231L18.7545 22.6823C18.3514 23.1189 17.6586 23.11 17.2672 22.6627L15.7545 20.9333V20.9342L14.9752 20.0436C14.9435 20.0073 14.916 19.9685 14.8922 19.9284C14.8827 19.9124 14.876 19.895 14.8678 19.8786C14.8559 19.8546 14.8439 19.8311 14.8346 19.8063C14.8285 19.7899 14.824 19.7731 14.819 19.7565C14.8109 19.7294 14.8045 19.7021 14.7994 19.6745C14.7962 19.6566 14.7936 19.6388 14.7916 19.6208C14.7888 19.5957 14.7871 19.5707 14.7867 19.5456C14.7865 19.5263 14.7856 19.5071 14.7867 19.4879C14.7886 19.4571 14.7939 19.4266 14.7994 19.3961C14.8018 19.3834 14.8033 19.3706 14.8063 19.3581C14.8145 19.3232 14.8254 19.2891 14.8385 19.2555C14.842 19.2466 14.8435 19.237 14.8473 19.2282C14.8642 19.189 14.8852 19.1513 14.9088 19.1149L14.9098 19.1139C14.9386 19.0696 14.9726 19.0277 15.0114 18.9889C15.1908 18.8095 15.4385 18.7361 15.6744 18.7721C15.6811 18.7731 15.6874 18.7759 15.694 18.777C15.7295 18.7834 15.7648 18.791 15.7994 18.8024C15.8205 18.8092 15.8404 18.8191 15.861 18.8278C15.8801 18.836 15.9 18.8424 15.9186 18.8522L15.9264 18.8561C15.9657 18.8773 16.0036 18.9025 16.0397 18.9313L17.4069 20.0251H17.4059L17.9996 20.4997L20.2906 18.4381L20.2858 18.4411L21.5494 17.3034C21.5481 17.3055 21.5459 17.3071 21.5446 17.3092L22.4781 16.4704ZM10.5543 1.79458C11.4542 1.29985 12.545 1.29999 13.4449 1.79458L20.4449 5.64517C21.4034 6.17232 21.9994 7.17927 21.9996 8.2731V13.9303C21.6182 14.0503 21.2531 14.2411 20.9274 14.5065L20.8053 14.611L19.9996 15.3356V8.73989L17.4996 10.1149V12.9997C17.4995 13.5518 17.0518 13.9997 16.4996 13.9997C15.9476 13.9995 15.4998 13.5517 15.4996 12.9997V11.2155L13.9274 12.0807C13.6312 12.2436 13.3192 12.3664 12.9996 12.4489V17.4938C12.0225 18.716 12.0414 20.4864 13.0944 21.6901L13.5114 22.1676L13.4449 22.2047L13.274 22.2917C12.467 22.6704 11.5322 22.6705 10.7252 22.2917L10.5543 22.2047L3.55432 18.3542C2.65595 17.8599 2.07555 16.9441 2.00647 15.9303L1.99963 15.7262V8.2731C1.99985 7.24776 2.52356 6.29869 3.37854 5.74966L3.55432 5.64517L10.5543 1.79458ZM3.99963 15.7262C3.99977 16.0906 4.19899 16.4265 4.51819 16.6022L10.9996 20.1657V12.4489C10.6802 12.3664 10.368 12.2436 10.0719 12.0807L3.99963 8.73989V15.7262ZM5.11194 7.06997L11.0358 10.3278C11.6359 10.6578 12.3634 10.6578 12.9635 10.3278L14.4508 9.50943L7.58264 5.71157L5.11194 7.06997ZM12.4811 3.54751C12.1812 3.38287 11.818 3.38273 11.5182 3.54751L9.65491 4.57193L16.5231 8.36978L18.8864 7.06997L12.4811 3.54751Z" fill="#1937FF"/>
</svg>
