<svg width="140" height="44" viewBox="0 0 140 44" fill="none" xmlns="http://www.w3.org/2000/svg">
<rect opacity="0.4" x="0.5" y="0.5" width="139" height="43" rx="5.5" stroke="#181716" stroke-opacity="0.13"/>
<path d="M16.4391 9.5407C16.1096 9.93032 15.9415 10.4312 15.9691 10.9407V33.0607C15.9351 33.5711 16.104 34.0742 16.4391 34.4607L16.5091 34.5407L28.8991 22.1507V21.8507L16.5091 9.4707L16.4391 9.5407Z" fill="url(#paint0_linear_103_402)"/>
<path d="M32.9984 26.2807L28.8984 22.1507V21.8507L32.9984 17.7207L33.0884 17.7807L37.9984 20.5607C39.3984 21.3507 39.3984 22.6507 37.9984 23.4507L33.1084 26.2307L32.9984 26.2807Z" fill="url(#paint1_linear_103_402)"/>
<path d="M33.1195 26.22L28.8995 22L16.4395 34.46C16.722 34.7115 17.0837 34.8562 17.4618 34.869C17.8399 34.8818 18.2105 34.7619 18.5095 34.53L33.1195 26.22Z" fill="url(#paint2_linear_103_402)"/>
<path d="M33.1195 17.7805L18.5095 9.48046C18.2125 9.24537 17.8421 9.12251 17.4635 9.13349C17.0849 9.14446 16.7223 9.28857 16.4395 9.54046L28.8995 22.0005L33.1195 17.7805Z" fill="url(#paint3_linear_103_402)"/>
<path opacity="0.2" d="M32.9995 26.1309L18.5095 34.3809C18.2214 34.5983 17.8703 34.7159 17.5095 34.7159C17.1486 34.7159 16.7975 34.5983 16.5095 34.3809L16.4395 34.4509L16.5095 34.5309C16.7975 34.7483 17.1486 34.8659 17.5095 34.8659C17.8703 34.8659 18.2214 34.7483 18.5095 34.5309L33.1195 26.2209L32.9995 26.1309Z" fill="black"/>
<path opacity="0.12" d="M16.4379 34.3202C16.1167 33.9235 15.9593 33.4191 15.9979 32.9102V33.0602C15.9639 33.5705 16.1328 34.0737 16.4679 34.4602L16.5379 34.3902L16.4379 34.3202Z" fill="black"/>
<path opacity="0.12" d="M38 23.3L33 26.13L33.09 26.22L38 23.44C38.2898 23.3174 38.5413 23.119 38.7278 22.8656C38.9143 22.6122 39.0291 22.3132 39.06 22C38.9975 22.2846 38.869 22.5505 38.6849 22.7763C38.5007 23.0021 38.2662 23.1815 38 23.3Z" fill="black"/>
<path opacity="0.25" d="M18.5088 9.62096L37.9988 20.701C38.2649 20.8195 38.4995 20.9989 38.6836 21.2247C38.8677 21.4505 38.9962 21.7164 39.0588 22.001C39.0279 21.6878 38.9131 21.3888 38.7265 21.1354C38.54 20.8819 38.2886 20.6835 37.9988 20.561L18.5088 9.48095C17.1188 8.68095 15.9688 9.34096 15.9688 10.941V11.091C15.9987 9.49096 17.1188 8.83096 18.5088 9.62096Z" fill="white"/>
<path d="M71.1401 23.7499C70.2976 23.7519 69.4745 24.0037 68.7751 24.4734C68.0756 24.9432 67.5312 25.6098 67.2106 26.3889C66.89 27.1681 66.8076 28.0248 66.9739 28.8508C67.1402 29.6768 67.5477 30.4349 68.1449 31.0293C68.7421 31.6236 69.5021 32.0276 70.3288 32.19C71.1556 32.3524 72.0119 32.2661 72.7896 31.9418C73.5672 31.6175 74.2313 31.07 74.6977 30.3683C75.1642 29.6667 75.4121 28.8425 75.4101 27.9999C75.4183 27.4379 75.3132 26.8799 75.1013 26.3593C74.8893 25.8386 74.5748 25.366 74.1764 24.9694C73.7779 24.5729 73.3038 24.2606 72.7822 24.051C72.2606 23.8415 71.7021 23.7391 71.1401 23.7499ZM71.1401 30.5799C70.6237 30.616 70.1083 30.496 69.6611 30.2353C69.2138 29.9747 68.8553 29.5855 68.6321 29.1184C68.409 28.6512 68.3315 28.1278 68.4098 27.6161C68.4881 27.1043 68.7185 26.628 69.0711 26.249C69.4237 25.8699 69.8821 25.6057 70.3869 25.4907C70.8916 25.3757 71.4193 25.4152 71.9013 25.604C72.3833 25.7929 72.7973 26.1223 73.0896 26.5496C73.3819 26.9769 73.5388 27.4822 73.5401 27.9999C73.5562 28.3279 73.5065 28.6559 73.3938 28.9643C73.2812 29.2728 73.1079 29.5556 72.8842 29.7961C72.6606 30.0366 72.391 30.2298 72.0914 30.3644C71.7919 30.499 71.4684 30.5723 71.1401 30.5799ZM61.8201 23.7499C60.9776 23.7519 60.1545 24.0037 59.4551 24.4734C58.7556 24.9432 58.2112 25.6098 57.8906 26.3889C57.57 27.1681 57.4876 28.0248 57.6539 28.8508C57.8202 29.6768 58.2277 30.4349 58.8249 31.0293C59.4221 31.6236 60.1821 32.0276 61.0088 32.19C61.8356 32.3524 62.6919 32.2661 63.4696 31.9418C64.2472 31.6175 64.9113 31.07 65.3777 30.3683C65.8442 29.6667 66.0921 28.8425 66.0901 27.9999C66.0982 27.4379 65.9932 26.8799 65.7813 26.3593C65.5693 25.8386 65.2548 25.366 64.8564 24.9694C64.4579 24.5729 63.9838 24.2606 63.4622 24.051C62.9406 23.8415 62.3821 23.7391 61.8201 23.7499ZM61.8201 30.5799C61.3037 30.616 60.7883 30.496 60.3411 30.2353C59.8938 29.9747 59.5353 29.5855 59.3121 29.1184C59.089 28.6512 59.0115 28.1278 59.0898 27.6161C59.1681 27.1043 59.3985 26.628 59.7511 26.249C60.1037 25.8699 60.5621 25.6057 61.0669 25.4907C61.5716 25.3757 62.0993 25.4152 62.5813 25.604C63.0633 25.7929 63.4773 26.1223 63.7696 26.5496C64.0619 26.9769 64.2188 27.4822 64.2201 27.9999C64.2362 28.3279 64.1865 28.6559 64.0738 28.9643C63.9612 29.2728 63.7879 29.5556 63.5642 29.7961C63.3406 30.0366 63.071 30.2298 62.7714 30.3644C62.4719 30.499 62.1484 30.5723 61.8201 30.5799ZM50.7401 25.0599V26.8599H55.0601C54.9924 27.7077 54.6399 28.5077 54.0601 29.1299C53.6268 29.5714 53.1056 29.9171 52.5302 30.1444C51.9549 30.3718 51.3382 30.4759 50.7201 30.4499C49.4471 30.4499 48.2262 29.9442 47.326 29.044C46.4258 28.1439 45.9201 26.923 45.9201 25.6499C45.9201 24.3769 46.4258 23.156 47.326 22.2558C48.2262 21.3556 49.4471 20.8499 50.7201 20.8499C51.9405 20.8318 53.119 21.2952 54.0001 22.1399L55.2701 20.8699C54.6741 20.2804 53.9664 19.8158 53.1886 19.5033C52.4107 19.1908 51.5783 19.0366 50.7401 19.0499C49.8511 19.0153 48.9643 19.1605 48.1327 19.4769C47.3012 19.7932 46.5421 20.2742 45.9009 20.8909C45.2596 21.5077 44.7495 22.2475 44.4011 23.0661C44.0527 23.8847 43.873 24.7652 43.873 25.6549C43.873 26.5446 44.0527 27.4251 44.4011 28.2437C44.7495 29.0623 45.2596 29.8022 45.9009 30.4189C46.5421 31.0357 47.3012 31.5166 48.1327 31.833C48.9643 32.1493 49.8511 32.2945 50.7401 32.2599C51.5955 32.2941 52.4485 32.1469 53.243 31.8281C54.0375 31.5092 54.7556 31.0259 55.3501 30.4099C56.4002 29.2563 56.9598 27.7391 56.9101 26.1799C56.9137 25.8046 56.8836 25.4298 56.8201 25.0599H50.7401ZM96.0501 26.4599C95.7893 25.6927 95.3016 25.0227 94.6516 24.5388C94.0016 24.0548 93.2199 23.7797 92.4101 23.7499C91.8631 23.7489 91.3217 23.86 90.8193 24.0765C90.317 24.2929 89.8644 24.6101 89.4895 25.0085C89.1146 25.4068 88.8254 25.8778 88.6397 26.3923C88.4541 26.9068 88.3759 27.454 88.4101 27.9999C88.4016 28.9128 88.6885 29.8039 89.2282 30.5402C89.7679 31.2765 90.5313 31.8184 91.4044 32.0851C92.2774 32.3517 93.2134 32.3288 94.0723 32.0196C94.9313 31.7105 95.6672 31.1318 96.1701 30.3699L94.7201 29.3699C94.5039 29.7302 94.1974 30.0277 93.8307 30.2329C93.4641 30.4382 93.0502 30.544 92.6301 30.5399C92.1967 30.5578 91.768 30.4442 91.4003 30.214C91.0327 29.9837 90.7432 29.6477 90.5701 29.2499L96.2601 26.8999L96.0501 26.4599ZM90.2501 27.8799C90.2298 27.5693 90.2717 27.2578 90.3734 26.9635C90.475 26.6693 90.6343 26.3983 90.842 26.1664C91.0497 25.9346 91.3015 25.7464 91.5828 25.6131C91.8641 25.4798 92.1691 25.4039 92.4801 25.3899C92.8023 25.3703 93.1231 25.4461 93.4024 25.608C93.6817 25.7699 93.907 26.0106 94.0501 26.2999L90.2501 27.8799ZM85.6301 31.9999H87.5001V19.4999H85.6301V31.9999ZM82.5701 24.6999H82.5001C82.2207 24.3818 81.876 24.1277 81.4894 23.9551C81.1028 23.7825 80.6835 23.6955 80.2601 23.6999C79.1673 23.7529 78.1367 24.2243 77.3821 25.0165C76.6274 25.8087 76.2064 26.8608 76.2064 27.9549C76.2064 29.049 76.6274 30.1012 77.3821 30.8933C78.1367 31.6855 79.1673 32.1569 80.2601 32.2099C80.6841 32.2184 81.1047 32.1332 81.4919 31.9603C81.8791 31.7875 82.2234 31.5312 82.5001 31.2099H82.5701V31.8199C82.5701 33.4499 81.7001 34.3199 80.3001 34.3199C79.8324 34.3096 79.3783 34.1606 78.9955 33.8918C78.6127 33.6229 78.3185 33.2464 78.1501 32.8099L76.5301 33.4799C76.8296 34.2322 77.3504 34.8758 78.0235 35.3258C78.6966 35.7757 79.4905 36.0108 80.3001 35.9999C82.4901 35.9999 84.3001 34.7099 84.3001 31.5699V23.9999H82.5701V24.6999ZM80.4201 30.5799C79.7649 30.5391 79.1499 30.25 78.7004 29.7716C78.2509 29.2932 78.0006 28.6614 78.0006 28.0049C78.0006 27.3485 78.2509 26.7167 78.7004 26.2383C79.1499 25.7598 79.7649 25.4708 80.4201 25.4299C80.7403 25.4437 81.0545 25.5218 81.344 25.6596C81.6334 25.7973 81.8922 25.9918 82.1049 26.2316C82.3176 26.4714 82.4799 26.7515 82.5822 27.0553C82.6844 27.3591 82.7245 27.6803 82.7001 27.9999C82.7274 28.3206 82.6893 28.6435 82.5883 28.9491C82.4872 29.2546 82.3252 29.5365 82.1121 29.7777C81.8989 30.0189 81.6391 30.2143 81.3483 30.3522C81.0575 30.4901 80.7417 30.5676 80.4201 30.5799ZM104.81 19.4999H100.33V31.9999H102.2V27.2599H104.81C105.343 27.2982 105.878 27.2263 106.382 27.0487C106.886 26.871 107.348 26.5915 107.739 26.2274C108.13 25.8634 108.442 25.4227 108.655 24.9328C108.869 24.4428 108.979 23.9142 108.979 23.3799C108.979 22.8456 108.869 22.317 108.655 21.8271C108.442 21.3372 108.13 20.8965 107.739 20.5324C107.348 20.1684 106.886 19.8888 106.382 19.7112C105.878 19.5336 105.343 19.4616 104.81 19.4999ZM104.81 25.4999H102.2V21.2399H104.85C105.131 21.2399 105.409 21.2953 105.669 21.4028C105.929 21.5104 106.165 21.668 106.363 21.8667C106.562 22.0654 106.72 22.3013 106.827 22.561C106.935 22.8206 106.99 23.0989 106.99 23.3799C106.99 23.661 106.935 23.9392 106.827 24.1989C106.72 24.4585 106.562 24.6944 106.363 24.8931C106.165 25.0918 105.929 25.2495 105.669 25.357C105.409 25.4646 105.131 25.5199 104.85 25.5199L104.81 25.4999ZM116.35 23.7099C115.669 23.6679 114.991 23.8265 114.399 24.1659C113.807 24.5054 113.328 25.0109 113.02 25.6199L114.67 26.3099C114.837 26.0093 115.087 25.7634 115.39 25.602C115.694 25.4405 116.038 25.3703 116.38 25.3999C116.617 25.3722 116.858 25.392 117.088 25.4582C117.317 25.5245 117.531 25.6358 117.718 25.7856C117.904 25.9355 118.058 26.1209 118.172 26.3311C118.286 26.5413 118.356 26.7721 118.38 27.0099V27.1299C117.779 26.8138 117.109 26.6491 116.43 26.6499C114.65 26.6499 112.83 27.6499 112.83 29.4699C112.848 29.8568 112.943 30.2361 113.11 30.5855C113.277 30.9348 113.513 31.247 113.803 31.5035C114.093 31.7601 114.432 31.9557 114.799 32.0787C115.166 32.2018 115.554 32.2498 115.94 32.2199C116.409 32.2459 116.877 32.1466 117.295 31.9322C117.714 31.7178 118.067 31.3961 118.32 30.9999H118.38V31.9999H120.18V27.1899C120.18 24.9999 118.52 23.7299 116.39 23.7299L116.35 23.7099ZM116.12 30.5599C115.51 30.5599 114.66 30.2499 114.66 29.4999C114.66 28.4999 115.72 28.1599 116.66 28.1599C117.254 28.1453 117.841 28.2903 118.36 28.5799C118.297 29.123 118.04 29.6249 117.635 29.9926C117.231 30.3604 116.707 30.569 116.16 30.5799L116.12 30.5599ZM126.74 23.9999L124.6 29.4199H124.54L122.32 23.9999H120.32L123.65 31.5799L121.75 35.7899H123.7L128.82 23.9999H126.74ZM109.94 31.9999H111.8V19.4999H109.94V31.9999Z" fill="#423E38" fill-opacity="0.65"/>
<path d="M45.1089 16.27H44.3789V14.27H44.9989C45.2779 13.9672 45.4876 13.6073 45.6137 13.2153C45.7397 12.8234 45.779 12.4087 45.7289 12V9H49.7289V14.26H50.3989V16.26H49.6589V15H45.1089V16.27ZM46.4989 12C46.5435 12.8033 46.3449 13.6014 45.9289 14.29H48.9289V9.74H46.4989V12Z" fill="#423E38" fill-opacity="0.65"/>
<path d="M56.4084 14.2201C56.1204 14.5088 55.7783 14.7379 55.4017 14.8942C55.025 15.0506 54.6212 15.131 54.2134 15.131C53.8056 15.131 53.4018 15.0506 53.0251 14.8942C52.6485 14.7379 52.3064 14.5088 52.0184 14.2201C51.4463 13.6226 51.127 12.8273 51.127 12.0001C51.127 11.1729 51.4463 10.3776 52.0184 9.78008C52.3064 9.49133 52.6485 9.26223 53.0251 9.10592C53.4018 8.9496 53.8056 8.86914 54.2134 8.86914C54.6212 8.86914 55.025 8.9496 55.4017 9.10592C55.7783 9.26223 56.1204 9.49133 56.4084 9.78008C56.6973 10.0721 56.9248 10.4189 57.0777 10.8002C57.2305 11.1814 57.3056 11.5894 57.2984 12.0001C57.3102 12.4114 57.2373 12.8207 57.0842 13.2026C56.9311 13.5845 56.7011 13.9309 56.4084 14.2201ZM52.5784 13.7201C52.7891 13.9389 53.0425 14.1122 53.3229 14.2292C53.6032 14.3461 53.9046 14.4043 54.2084 14.4001C54.5124 14.4061 54.8144 14.3488 55.095 14.2317C55.3756 14.1146 55.6288 13.9404 55.8384 13.7201C56.2699 13.2512 56.5094 12.6373 56.5094 12.0001C56.5094 11.3629 56.2699 10.749 55.8384 10.2801C55.6288 10.0598 55.3756 9.88555 55.095 9.76848C54.8144 9.65141 54.5124 9.59406 54.2084 9.60008C53.9046 9.59587 53.6032 9.65404 53.3229 9.77101C53.0425 9.88797 52.7891 10.0612 52.5784 10.2801C52.1533 10.7521 51.918 11.3648 51.918 12.0001C51.918 12.6353 52.1533 13.2481 52.5784 13.7201Z" fill="#423E38" fill-opacity="0.65"/>
<path d="M61.1787 15.1304C60.7741 15.1367 60.3723 15.0612 59.9977 14.9082C59.6231 14.7552 59.2832 14.5281 58.9987 14.2404C58.4217 13.6374 58.0996 12.835 58.0996 12.0004C58.0996 11.1658 58.4217 10.3634 58.9987 9.76038C59.2879 9.46772 59.6342 9.23769 60.0161 9.08458C60.3981 8.93147 60.8074 8.85856 61.2187 8.87038C61.6373 8.85853 62.0531 8.94247 62.4344 9.11577C62.8157 9.28908 63.1523 9.54718 63.4187 9.87038L62.8887 10.3904C62.6922 10.1378 62.438 9.93604 62.1474 9.80206C61.8568 9.66807 61.5383 9.60577 61.2187 9.62038C60.9109 9.61253 60.6047 9.66794 60.3192 9.78318C60.0336 9.89843 59.7748 10.0711 59.5587 10.2904C59.1279 10.7636 58.8892 11.3805 58.8892 12.0204C58.8892 12.6603 59.1279 13.2772 59.5587 13.7504C59.7748 13.9697 60.0336 14.1423 60.3192 14.2576C60.6047 14.3728 60.9109 14.4282 61.2187 14.4204C61.5623 14.4106 61.8996 14.3259 62.2071 14.1722C62.5145 14.0184 62.7847 13.7994 62.9987 13.5304L63.5387 14.0604C63.2647 14.3887 62.9238 14.6546 62.5387 14.8404C62.1133 15.0391 61.6482 15.1383 61.1787 15.1304Z" fill="#423E38" fill-opacity="0.65"/>
<path d="M66.6785 15H65.9085V9.74H64.2285V9H68.3485V9.74H66.6785V15Z" fill="#423E38" fill-opacity="0.65"/>
<path d="M73.6487 9L71.3787 14.06C71.3236 14.2629 71.2251 14.4514 71.09 14.6124C70.9548 14.7734 70.7863 14.9031 70.5961 14.9925C70.4058 15.0819 70.1984 15.1289 69.9882 15.1302C69.778 15.1315 69.57 15.0871 69.3787 15L69.5787 14.29C69.701 14.3588 69.8384 14.3965 69.9787 14.4C70.1267 14.4074 70.2733 14.369 70.3987 14.29C70.5201 14.1889 70.6132 14.058 70.6687 13.91L70.8887 13.43L68.8887 9H69.7987L71.2787 12.44L72.7387 9H73.6487Z" fill="#423E38" fill-opacity="0.65"/>
<path d="M74.5195 15V9H78.8595V15H78.0895V9.74H75.2895V15H74.5195Z" fill="#423E38" fill-opacity="0.65"/>
<path d="M80.2285 15V9H80.9985V11.57H83.9985V9H84.7785V15H83.9985V12.29H80.9985V15H80.2285Z" fill="#423E38" fill-opacity="0.65"/>
<path d="M91.059 14.2201C90.7702 14.5091 90.4272 14.7385 90.0498 14.8949C89.6723 15.0514 89.2676 15.1319 88.859 15.1319C88.4504 15.1319 88.0458 15.0514 87.6683 14.8949C87.2908 14.7385 86.9479 14.5091 86.659 14.2201C86.0869 13.6226 85.7676 12.8273 85.7676 12.0001C85.7676 11.1729 86.0869 10.3776 86.659 9.78008C86.947 9.49133 87.2891 9.26223 87.6658 9.10592C88.0424 8.9496 88.4462 8.86914 88.854 8.86914C89.2618 8.86914 89.6656 8.9496 90.0423 9.10592C90.4189 9.26223 90.7611 9.49133 91.049 9.78008C91.6166 10.3799 91.9329 11.1743 91.9329 12.0001C91.9329 12.8259 91.6166 13.6203 91.049 14.2201H91.059ZM87.229 13.7201C87.4386 13.9404 87.6918 14.1146 87.9724 14.2317C88.2531 14.3488 88.555 14.4061 88.859 14.4001C89.1628 14.4043 89.4642 14.3461 89.7446 14.2292C90.0249 14.1122 90.2783 13.9389 90.489 13.7201C90.9142 13.2481 91.1494 12.6353 91.1494 12.0001C91.1494 11.3648 90.9142 10.7521 90.489 10.2801C90.2783 10.0612 90.0249 9.88797 89.7446 9.77101C89.4642 9.65404 89.1628 9.59587 88.859 9.60008C88.555 9.59406 88.2531 9.65141 87.9724 9.76848C87.6918 9.88555 87.4386 10.0598 87.229 10.2801C86.7975 10.749 86.558 11.3629 86.558 12.0001C86.558 12.6373 86.7975 13.2512 87.229 13.7201Z" fill="#423E38" fill-opacity="0.65"/>
<path d="M95.0898 15.0001V9.00009H97.2598C97.7097 8.99558 98.145 9.15968 98.4799 9.46009C98.6469 9.6051 98.7801 9.78507 98.87 9.98725C98.9599 10.1894 99.0042 10.4089 98.9998 10.6301C99.0023 10.8995 98.9258 11.1637 98.7798 11.3901C98.6322 11.6048 98.428 11.7744 98.1898 11.8801C98.4785 11.9788 98.7322 12.1595 98.9198 12.4001C99.1037 12.6452 99.202 12.9438 99.1998 13.2501C99.2049 13.4806 99.1592 13.7094 99.0659 13.9203C98.9726 14.1312 98.8339 14.3189 98.6599 14.4701C98.3128 14.7931 97.8539 14.9687 97.3798 14.9601L95.0898 15.0001ZM95.8598 11.5701H97.2598C97.3908 11.5777 97.5219 11.5555 97.6431 11.5053C97.7643 11.4551 97.8726 11.3781 97.9598 11.2801C98.1294 11.1139 98.2265 10.8875 98.2299 10.6501C98.2393 10.412 98.157 10.1793 97.9998 10.0001C97.9158 9.90683 97.8121 9.83336 97.6963 9.78494C97.5804 9.73653 97.4553 9.71438 97.3298 9.72009H95.8898L95.8598 11.5701ZM95.8598 14.2601H97.4198C97.5553 14.2646 97.69 14.2392 97.8145 14.1856C97.939 14.132 98.0501 14.0516 98.1398 13.9501C98.3125 13.7657 98.409 13.5227 98.4099 13.2701C98.4038 13.0196 98.3038 12.7805 98.1298 12.6001C98.0334 12.4989 97.9169 12.419 97.7877 12.3656C97.6585 12.3122 97.5196 12.2865 97.3798 12.2901H95.8598V14.2601Z" fill="#423E38" fill-opacity="0.65"/>
<defs>
<linearGradient id="paint0_linear_103_402" x1="27.7991" y1="10.7107" x2="11.0191" y2="27.4907" gradientUnits="userSpaceOnUse">
<stop stop-color="#00A0FF"/>
<stop offset="0.01" stop-color="#00A1FF"/>
<stop offset="0.26" stop-color="#00BEFF"/>
<stop offset="0.51" stop-color="#00D2FF"/>
<stop offset="0.76" stop-color="#00DFFF"/>
<stop offset="1" stop-color="#00E3FF"/>
</linearGradient>
<linearGradient id="paint1_linear_103_402" x1="39.8284" y1="22.0007" x2="15.6384" y2="22.0007" gradientUnits="userSpaceOnUse">
<stop stop-color="#FFE000"/>
<stop offset="0.41" stop-color="#FFBD00"/>
<stop offset="0.78" stop-color="#FFA500"/>
<stop offset="1" stop-color="#FF9C00"/>
</linearGradient>
<linearGradient id="paint2_linear_103_402" x1="30.8295" y1="24.3" x2="8.06945" y2="47.05" gradientUnits="userSpaceOnUse">
<stop stop-color="#FF3A44"/>
<stop offset="1" stop-color="#C31162"/>
</linearGradient>
<linearGradient id="paint3_linear_103_402" x1="13.2995" y1="2.18046" x2="23.4595" y2="12.3405" gradientUnits="userSpaceOnUse">
<stop stop-color="#32A071"/>
<stop offset="0.07" stop-color="#2DA771"/>
<stop offset="0.48" stop-color="#15CF74"/>
<stop offset="0.8" stop-color="#06E775"/>
<stop offset="1" stop-color="#00F076"/>
</linearGradient>
</defs>
</svg>
