<svg width="24" height="24" viewBox="0 0 24 24" fill="none" xmlns="http://www.w3.org/2000/svg">
<path d="M22.4781 16.4703C22.7709 16.2069 23.2182 16.2183 23.4967 16.4967C23.7778 16.7778 23.7868 17.231 23.5172 17.5231L18.7545 22.6823C18.3514 23.119 17.6586 23.11 17.2672 22.6627L14.9762 20.0436C14.8693 19.9213 14.8089 19.7744 14.7916 19.6237C14.7905 19.6143 14.7905 19.6048 14.7897 19.5953C14.7868 19.5588 14.7854 19.5225 14.7877 19.486C14.7883 19.4761 14.7907 19.4665 14.7916 19.4567C14.7951 19.4229 14.7984 19.3892 14.8063 19.3561C14.811 19.3357 14.8194 19.3165 14.8258 19.2965C14.8337 19.2724 14.8399 19.2477 14.8502 19.2242C14.8617 19.1979 14.8767 19.1732 14.8912 19.1481C14.8996 19.1336 14.9063 19.1181 14.9156 19.1041L14.9196 19.0983C14.9459 19.0597 14.9762 19.0231 15.0104 18.9889C15.1844 18.8148 15.4233 18.7398 15.653 18.7682C15.6987 18.7739 15.7442 18.7836 15.7887 18.7975C15.8777 18.8253 15.9629 18.87 16.0397 18.9313L17.3746 19.9996L17.9996 20.4996L22.4781 16.4703ZM17.9996 3.99963C20.2087 3.99963 21.9994 5.79066 21.9996 7.99963V13.9303C21.6181 14.0502 21.2531 14.241 20.9274 14.5065L20.8053 14.611L19.9996 15.3356V11.9996H3.99963V15.9996C3.99963 17.1041 4.89524 17.9994 5.99963 17.9996H12.6676C12.3392 18.6177 12.2219 19.3199 12.319 19.9996H5.99963C3.79067 19.9994 1.99963 18.2086 1.99963 15.9996V7.99963C1.99982 5.79078 3.79078 3.99984 5.99963 3.99963H17.9996ZM8.99963 13.9996C9.5518 13.9996 9.99944 14.4475 9.99963 14.9996C9.99963 15.5519 9.55192 15.9996 8.99963 15.9996H6.99963C6.44752 15.9994 5.99963 15.5518 5.99963 14.9996C5.99982 14.4476 6.44764 13.9998 6.99963 13.9996H8.99963ZM5.99963 5.99963C4.89535 5.99984 3.99982 6.89535 3.99963 7.99963V8.99963H19.9996V7.99963C19.9994 6.89523 19.1041 5.99963 17.9996 5.99963H5.99963Z" fill="#1937FF"/>
</svg>
