<svg width="72" height="72" viewBox="0 0 72 72" fill="none" xmlns="http://www.w3.org/2000/svg">
<path d="M36 6C52.5685 6 66 19.4315 66 36C66 52.5685 52.5685 66 36 66C19.4315 66 6 52.5685 6 36C6 19.4315 19.4315 6 36 6ZM36 12C22.7452 12 12 22.7452 12 36C12 49.2548 22.7452 60 36 60C49.2548 60 60 49.2548 60 36C60 22.7452 49.2548 12 36 12ZM36 47.25C38.0711 47.25 39.75 48.9289 39.75 51C39.75 53.0711 38.0711 54.75 36 54.75C33.9289 54.75 32.25 53.0711 32.25 51C32.25 48.9289 33.9289 47.25 36 47.25ZM31.0586 20.1172C34.1694 18.5618 37.8306 18.5618 40.9414 20.1172L41.2734 20.2822C43.1966 21.2438 44.7562 22.8034 45.7178 24.7266C47.4922 28.2753 46.592 32.5791 43.5439 35.1191L40.0791 38.0059C39.3953 38.5758 39 39.4204 39 40.3105V40.5C39 42.1569 37.6569 43.5 36 43.5C34.3431 43.5 33 42.1569 33 40.5V40.3105C33 37.6396 34.1864 35.1064 36.2383 33.3965L39.7021 30.5098C40.6112 29.7522 40.8798 28.4686 40.3506 27.4102C39.9696 26.6481 39.3519 26.0304 38.5898 25.6494L38.2588 25.4834C36.8371 24.7726 35.1629 24.7726 33.7412 25.4834C32.7642 25.972 31.972 26.7642 31.4834 27.7412L31.1836 28.3418C30.4426 29.8237 28.6401 30.4246 27.1582 29.6836C25.6763 28.9426 25.0754 27.1401 25.8164 25.6582L26.1172 25.0586C27.1864 22.9201 28.9201 21.1864 31.0586 20.1172Z" fill="#F7F8F9"/>
</svg>
