<svg width="140" height="44" viewBox="0 0 140 44" fill="none" xmlns="http://www.w3.org/2000/svg">
<rect opacity="0.4" x="0.5" y="0.5" width="139" height="43" rx="5.5" stroke="#181716" stroke-opacity="0.13"/>
<path d="M77.1808 9.51802C77.2907 9.69307 77.4506 9.83627 77.66 9.94763C77.8696 10.059 78.1281 10.1148 78.4357 10.1148C78.7459 10.1148 79.0067 10.059 79.2173 9.94763C79.4282 9.83627 79.5887 9.69307 79.6988 9.51802C79.8087 9.34298 79.8784 9.15462 79.9075 8.95312H79.1877C79.108 9.37735 78.8574 9.58962 78.4357 9.58962C78.014 9.58962 77.7647 9.37735 77.6879 8.95312H76.9719C77.001 9.15462 77.0705 9.34298 77.1808 9.51802Z" fill="#423E38" fill-opacity="0.65"/>
<path d="M79.9036 13.0425V16.2089H80.8265V10.4488H79.6848L76.8366 14.9121C76.8605 14.4879 76.8724 14.0966 76.8724 13.7386V10.4488H75.9495V16.2089H77.0555L79.9473 11.674C79.9182 12.1885 79.9036 12.6446 79.9036 13.0425Z" fill="#423E38" fill-opacity="0.65"/>
<path fill-rule="evenodd" clip-rule="evenodd" d="M48.3343 14.9101C48.5572 15.3462 48.8794 15.6851 49.3011 15.9265C49.7228 16.1677 50.2226 16.2885 50.8008 16.2885C51.4001 16.2885 51.9219 16.165 52.3661 15.9184C52.8103 15.6719 53.1524 15.3204 53.3924 14.8643C53.6324 14.4081 53.7525 13.8711 53.7525 13.2533C53.7525 12.6803 53.6424 12.1766 53.4222 11.7416C53.2022 11.3066 52.8825 10.9691 52.4635 10.7291C52.0445 10.4892 51.5447 10.3691 50.9638 10.3691C50.3566 10.3691 49.8294 10.4931 49.3825 10.7412C48.9357 10.9891 48.5937 11.3405 48.3564 11.7953C48.1189 12.2501 48.0002 12.7812 48.0002 13.3886C48.0002 13.9666 48.1116 14.4738 48.3343 14.9101ZM52.5033 14.4485C52.3654 14.7761 52.1573 15.0334 51.8788 15.2203C51.6003 15.4074 51.2608 15.5008 50.8604 15.5008C50.4574 15.5008 50.1192 15.4053 49.8461 15.2143C49.5728 15.0234 49.37 14.7636 49.2374 14.4347C49.1048 14.1059 49.0385 13.7333 49.0385 13.3168C49.0385 12.9217 49.1088 12.5604 49.2493 12.2329C49.39 11.9054 49.6007 11.6441 49.8819 11.4491C50.1629 11.2543 50.5051 11.1569 50.9082 11.1569C51.3299 11.1569 51.6746 11.253 51.9425 11.4452C52.2104 11.6375 52.4052 11.8954 52.5272 12.219C52.6492 12.5425 52.7101 12.9111 52.7101 13.3249C52.7101 13.7464 52.6412 14.1211 52.5033 14.4485Z" fill="#423E38" fill-opacity="0.65"/>
<path d="M53.9829 11.2802H55.769V16.2089H56.7635V11.2802H58.462L58.5536 10.4488H54.0704L53.9829 11.2802Z" fill="#423E38" fill-opacity="0.65"/>
<path d="M63.9081 16.2089H62.7862L61.0717 13.6709H60.3915V16.2089H59.397V10.4488H60.3915V12.8276H60.9127L62.1061 11.1012C62.281 10.8439 62.4567 10.6576 62.6332 10.5423C62.8095 10.4268 63.0316 10.3692 63.2994 10.3692C63.5222 10.3692 63.7211 10.4064 63.8962 10.4805L63.6893 11.2563C63.5806 11.2113 63.477 11.1888 63.379 11.1888C63.2622 11.1888 63.1623 11.2179 63.0786 11.2762C62.9951 11.3345 62.9082 11.4286 62.818 11.5587L61.764 13.0702L63.9081 16.2089Z" fill="#423E38" fill-opacity="0.65"/>
<path fill-rule="evenodd" clip-rule="evenodd" d="M66.2195 10.4493H64.668V16.2093H65.6625V13.9897C65.9462 14.0428 66.1982 14.0692 66.4183 14.0692C66.8214 14.0692 67.1782 13.993 67.4885 13.8405C67.7987 13.6879 68.0407 13.4693 68.2143 13.1842C68.3881 12.899 68.4749 12.5656 68.4749 12.1836C68.4749 11.6214 68.2813 11.1918 67.8942 10.8948C67.507 10.5978 66.9486 10.4493 66.2195 10.4493ZM67.4804 12.2076C67.4804 12.5576 67.3743 12.8288 67.1622 13.021C66.95 13.2133 66.641 13.3095 66.2353 13.3095C66.1027 13.3095 65.9118 13.2895 65.6625 13.2497V11.2051H66.2035C66.6225 11.2051 66.9401 11.2834 67.1561 11.4399C67.3724 11.5962 67.4804 11.8522 67.4804 12.2076Z" fill="#423E38" fill-opacity="0.65"/>
<path fill-rule="evenodd" clip-rule="evenodd" d="M70.388 15.9265C69.9663 15.6851 69.6441 15.3462 69.4212 14.9101C69.1985 14.4738 69.0872 13.9666 69.0872 13.3886C69.0872 12.7812 69.2058 12.2501 69.4433 11.7953C69.6806 11.3405 70.0226 10.9891 70.4695 10.7412C70.9163 10.4931 71.4435 10.3691 72.0507 10.3691C72.6316 10.3691 73.1314 10.4892 73.5504 10.7291C73.9694 10.9691 74.2891 11.3066 74.5093 11.7416C74.7292 12.1766 74.8394 12.6803 74.8394 13.2533C74.8394 13.8711 74.7193 14.4081 74.4793 14.8643C74.2393 15.3204 73.8972 15.6719 73.453 15.9184C73.0088 16.165 72.487 16.2885 71.8877 16.2885C71.3095 16.2885 70.8096 16.1677 70.388 15.9265ZM72.9657 15.2203C73.2442 15.0334 73.4524 14.7761 73.5902 14.4485C73.7281 14.1211 73.7972 13.7464 73.7972 13.3249C73.7972 12.9111 73.7361 12.5425 73.6141 12.219C73.4921 11.8954 73.2971 11.6375 73.0294 11.4452C72.7615 11.253 72.4168 11.1569 71.9951 11.1569C71.592 11.1569 71.2498 11.2543 70.9688 11.4491C70.6876 11.6441 70.4769 11.9054 70.3362 12.2329C70.1957 12.5604 70.1254 12.9217 70.1254 13.3168C70.1254 13.7333 70.1918 14.1059 70.3244 14.4347C70.4569 14.7636 70.6597 15.0234 70.933 15.2143C71.2061 15.4053 71.5443 15.5008 71.9473 15.5008C72.3477 15.5008 72.6872 15.4074 72.9657 15.2203Z" fill="#423E38" fill-opacity="0.65"/>
<path d="M83.456 11.2802H81.6699L81.7574 10.4488H86.2406L86.1492 11.2802H84.4505V16.2089H83.456V11.2802Z" fill="#423E38" fill-opacity="0.65"/>
<path d="M90.4773 10.4488H87.084V16.2089H90.4216L90.5052 15.3815H88.0785V13.6233H90.2505V12.8554H88.0785V11.2683H90.3818L90.4773 10.4488Z" fill="#423E38" fill-opacity="0.65"/>
<path fill-rule="evenodd" clip-rule="evenodd" d="M97.4405 13.3632C97.646 13.4891 97.8079 13.6548 97.9259 13.8604C98.0439 14.0659 98.1029 14.3065 98.1029 14.5823C98.1029 14.9032 98.0225 15.1863 97.8621 15.4317C97.7018 15.6769 97.467 15.868 97.1581 16.0045C96.8492 16.1411 96.4785 16.2093 96.0462 16.2093H94.1687V10.4493H95.9665C96.5766 10.4493 97.0341 10.5674 97.3392 10.8032C97.6439 11.0393 97.7965 11.3629 97.7965 11.774C97.7965 12.116 97.6991 12.4018 97.5042 12.6311C97.3092 12.8605 97.054 13.0216 96.7385 13.1145C97.0009 13.1542 97.2349 13.2372 97.4405 13.3632ZM96.808 15.2248C97.0108 15.0591 97.1123 14.825 97.1123 14.5227C97.1123 14.2018 97.0003 13.9578 96.7762 13.7907C96.5522 13.6238 96.2293 13.5401 95.8076 13.5401H95.1393V15.4734H95.8872C96.2981 15.4734 96.6052 15.3905 96.808 15.2248ZM95.1393 12.8043H95.7598C95.9665 12.8043 96.149 12.7631 96.3068 12.6809C96.4646 12.5987 96.5859 12.4879 96.6708 12.3487C96.7556 12.2095 96.7982 12.0564 96.7982 11.8893C96.7982 11.6533 96.7125 11.477 96.5414 11.3602C96.3703 11.2435 96.1232 11.1852 95.7995 11.1852H95.1393V12.8043Z" fill="#423E38" fill-opacity="0.65"/>
<path d="M72.5735 34.441C74.8557 34.441 76.7434 33.1367 76.7434 30.9744C76.7434 28.5546 74.77 27.851 73.0713 27.2675C71.75 26.8214 70.6004 26.4095 70.6004 25.3283C70.6004 24.3844 71.4753 23.8868 72.5049 23.8868C73.5861 23.8868 74.3582 24.4531 74.7873 25.4141L76.7434 25.0881C76.1256 23.2003 74.564 21.999 72.4365 21.999C70.24 21.999 68.4897 23.269 68.4897 25.4313C68.4897 27.8682 70.4631 28.5375 72.1618 29.1038C73.466 29.5328 74.6326 29.9447 74.6326 31.043C74.6326 32.0041 73.7577 32.5532 72.5908 32.5532C71.2523 32.5532 70.5318 31.9183 69.8969 30.7684L67.9062 31.1117C68.4897 33.1539 70.343 34.441 72.5735 34.441Z" fill="#423E38" fill-opacity="0.65"/>
<path fill-rule="evenodd" clip-rule="evenodd" d="M56.7511 25.9979C56.7511 27.817 55.5672 29.207 53.7655 29.6704L57.1286 34.2696H54.7091L51.5177 29.8248H50.0591V34.2696H48V22.1709H52.4613C54.9665 22.1709 56.7511 23.7497 56.7511 25.9979ZM54.6407 25.9979C54.6407 24.848 53.7482 24.0586 52.4613 24.0586H50.0591V27.9371H52.4613C53.7482 27.9371 54.6407 27.1477 54.6407 25.9979Z" fill="#423E38" fill-opacity="0.65"/>
<path d="M64.4056 32.931C63.8391 33.8749 62.8439 34.4412 61.763 34.4412C59.8583 34.4412 58.417 32.8795 58.417 30.7344V25.3457H60.3901V30.5113C60.3901 31.7812 61.1796 32.6736 62.3121 32.6736C63.4617 32.6736 64.3025 31.7812 64.3025 30.5113V25.3457H66.2759V34.2696H64.8L64.4056 32.931Z" fill="#423E38" fill-opacity="0.65"/>
<path d="M81.1158 31.5581C81.1158 32.2273 81.4419 32.5534 82.111 32.5534H83.9471L83.7754 34.2696H82.111C80.1549 34.2696 79.1424 33.3085 79.1424 31.5581V27.0618H77.6841V25.3457H79.1424L79.6402 22.7715H81.1158V25.3457H83.7754V27.0618H81.1158V31.5581Z" fill="#423E38" fill-opacity="0.65"/>
<path fill-rule="evenodd" clip-rule="evenodd" d="M89.5862 34.4409C92.3831 34.4409 94.3562 32.5189 94.3562 29.8074C94.3562 27.0959 92.3831 25.1738 89.5862 25.1738C86.7893 25.1738 84.8159 27.0959 84.8159 29.8074C84.8159 32.5189 86.7893 34.4409 89.5862 34.4409ZM89.5862 32.639C87.9732 32.639 86.875 31.4892 86.875 29.8074C86.875 28.1256 87.9732 26.9758 89.5862 26.9758C91.1992 26.9758 92.2972 28.1256 92.2972 29.8074C92.2972 31.4892 91.1992 32.639 89.5862 32.639Z" fill="#423E38" fill-opacity="0.65"/>
<path d="M98.0454 29.0011V34.2696H96.0723V25.3457H97.5479L97.9253 26.6328C98.5258 25.6374 99.3323 25.3457 100.379 25.3457H100.757L100.928 27.2334H99.7957C98.5945 27.2334 98.0454 27.8684 98.0454 29.0011Z" fill="#423E38" fill-opacity="0.65"/>
<path fill-rule="evenodd" clip-rule="evenodd" d="M110.637 29.7044C110.637 27.1302 108.716 25.1738 106.005 25.1738C103.294 25.1738 101.372 27.1131 101.372 29.8074C101.372 32.5017 103.294 34.4409 106.005 34.4409C107.858 34.4409 109.608 33.5657 110.277 31.8667L108.424 31.5578C107.995 32.1928 107.171 32.639 106.125 32.639C104.615 32.639 103.62 31.7123 103.431 30.3394H110.603C110.62 30.1506 110.637 29.9446 110.637 29.7044ZM106.005 26.89C107.24 26.89 108.167 27.6794 108.493 28.7949H103.551C103.877 27.645 104.804 26.89 106.005 26.89Z" fill="#423E38" fill-opacity="0.65"/>
<path fill-rule="evenodd" clip-rule="evenodd" d="M21.44 36.2448C15.1043 36.2448 11.9365 36.2448 9.96824 34.2593C8 32.2739 8 29.0783 8 22.6872L8 21.5574C8 15.1663 8 11.9708 9.96824 9.98533C11.9365 8 15.1043 8 21.44 8H21.44L22.56 8C28.8957 8 32.0635 8 34.0318 9.98533C36 11.9708 36 15.1663 36 21.5574V22.6872C36 29.0783 36 32.2739 34.0318 34.2593C32.0635 36.2448 28.8957 36.2448 22.56 36.2448H21.44Z" fill="#0077FF"/>
<path fill-rule="evenodd" clip-rule="evenodd" d="M26.1994 25.9119L29.6181 26.7733C30.475 26.9893 31.3057 26.3389 31.3057 25.4521V16.2539C31.3057 15.4732 30.7767 14.7925 30.0223 14.6024L24.596 13.235C23.7392 13.0191 22.9084 13.6695 22.9084 14.5563V16.2142L19.4898 15.3527C18.633 15.1368 17.8022 15.7872 17.8022 16.674V18.332L14.3829 17.4704C13.526 17.2545 12.6953 17.9048 12.6953 18.7916V27.9898C12.6953 28.7705 13.2243 29.4512 13.9787 29.6413L19.4049 31.0087C20.2618 31.2246 21.0925 30.5742 21.0925 29.6874V28.0294L21.9528 28.2462L21.0914 28.026L21.0928 20.5029C21.0928 19.7269 20.6069 19.277 20.4303 19.1392C20.3967 19.1128 20.3873 19.0638 20.4115 19.0284C20.4352 18.9936 20.4781 18.9771 20.5183 18.9894C21.2332 19.2071 21.9173 19.9465 21.9856 20.8762L22.2217 27.9008C22.2294 28.1314 22.3771 28.3313 22.5897 28.4067L24.5119 28.891C25.3688 29.1069 26.1994 28.4566 26.1994 27.5697V25.9119ZM27.3294 25.7831C27.3377 26.0298 27.507 26.2412 27.7444 26.3011L26.1994 25.9119L26.2005 18.3857C26.2005 17.6097 25.7146 17.1598 25.538 17.022C25.5043 16.9957 25.495 16.9466 25.5192 16.9112C25.5429 16.8764 25.5858 16.86 25.6259 16.8722C26.3409 17.0899 27.025 17.8293 27.0933 18.759L27.3294 25.7831Z" fill="white"/>
</svg>
